<svg width="106" height="24" viewBox="0 0 106 24" fill="none" xmlns="http://www.w3.org/2000/svg">
<path opacity="0.6" d="M14 16C14 17.77 13.23 19.37 12 20.46C10.94 21.42 9.54 22 8 22C4.69 22 2 19.31 2 16C2 13.24 3.88 10.9 6.42 10.21C7.11 11.95 8.59 13.29 10.42 13.79C10.92 13.93 11.45 14 12 14C12.55 14 13.08 13.93 13.58 13.79C13.85 14.47 14 15.22 14 16Z" fill="#5030E5"/>
<path d="M18 8C18 8.78 17.85 9.53 17.58 10.21C16.89 11.95 15.41 13.29 13.58 13.79C13.08 13.93 12.55 14 12 14C11.45 14 10.92 13.93 10.42 13.79C8.59 13.29 7.11 11.95 6.42 10.21C6.15 9.53 6 8.78 6 8C6 4.69 8.69 2 12 2C15.31 2 18 4.69 18 8Z" fill="#5030E5"/>
<path opacity="0.4" d="M22 16C22 19.31 19.31 22 16 22C14.46 22 13.06 21.42 12 20.46C13.23 19.37 14 17.77 14 16C14 15.22 13.85 14.47 13.58 13.79C15.41 13.29 16.89 11.95 17.58 10.21C20.12 10.9 22 13.24 22 16Z" fill="#5030E5"/>
<path d="M33.7955 6.66335V4.45455H45.4006V6.66335H40.9048V19H38.2912V6.66335H33.7955ZM49.179 19.2202C48.4877 19.2202 47.8651 19.0971 47.3111 18.8509C46.7618 18.5999 46.3262 18.2306 46.0043 17.7429C45.687 17.2552 45.5284 16.6539 45.5284 15.9389C45.5284 15.3234 45.642 14.8144 45.8693 14.4119C46.0966 14.0095 46.4067 13.6875 46.7997 13.446C47.1927 13.2045 47.6354 13.0223 48.1278 12.8991C48.625 12.7713 49.1387 12.679 49.669 12.6222C50.3082 12.5559 50.8267 12.4967 51.2244 12.4446C51.6222 12.3878 51.911 12.3026 52.0909 12.1889C52.2756 12.0705 52.3679 11.8883 52.3679 11.642V11.5994C52.3679 11.0644 52.2093 10.6501 51.892 10.3565C51.5748 10.063 51.1179 9.91619 50.5213 9.91619C49.8916 9.91619 49.392 10.0535 49.0227 10.3281C48.6581 10.6027 48.4119 10.9271 48.2841 11.3011L45.8835 10.9602C46.0729 10.2973 46.3854 9.74337 46.821 9.2983C47.2566 8.84848 47.7893 8.51231 48.419 8.28977C49.0488 8.0625 49.7448 7.94886 50.5071 7.94886C51.0327 7.94886 51.5559 8.01042 52.0767 8.13352C52.5975 8.25663 53.0734 8.46023 53.5043 8.74432C53.9351 9.02367 54.2808 9.40483 54.5412 9.88778C54.8063 10.3707 54.9389 10.9744 54.9389 11.6989V19H52.4673V17.5014H52.3821C52.2259 17.8045 52.0057 18.0885 51.7216 18.3537C51.4422 18.6141 51.0895 18.8248 50.6634 18.9858C50.242 19.142 49.7472 19.2202 49.179 19.2202ZM49.8466 17.331C50.3627 17.331 50.8101 17.2292 51.1889 17.0256C51.5677 16.8172 51.8589 16.5426 52.0625 16.2017C52.2708 15.8608 52.375 15.4891 52.375 15.0866V13.8011C52.2945 13.8674 52.1572 13.929 51.9631 13.9858C51.7737 14.0426 51.5606 14.0923 51.3239 14.1349C51.0871 14.1776 50.8527 14.2154 50.6207 14.2486C50.3887 14.2817 50.1875 14.3101 50.017 14.3338C49.6335 14.3859 49.2902 14.4711 48.9872 14.5895C48.6842 14.7079 48.4451 14.8736 48.2699 15.0866C48.0947 15.295 48.0071 15.5649 48.0071 15.8963C48.0071 16.3698 48.1799 16.7273 48.5256 16.9688C48.8712 17.2102 49.3116 17.331 49.8466 17.331ZM57.5241 19V8.09091H60.017V9.90909H60.1307C60.3295 9.27936 60.6705 8.79403 61.1534 8.45312C61.6411 8.10748 62.1974 7.93466 62.8224 7.93466C62.9645 7.93466 63.1231 7.94176 63.2983 7.95597C63.4782 7.96544 63.6274 7.98201 63.7457 8.00568V10.3707C63.6368 10.3329 63.464 10.2997 63.2273 10.2713C62.9953 10.2382 62.7704 10.2216 62.5526 10.2216C62.0838 10.2216 61.6624 10.3234 61.2884 10.527C60.919 10.7259 60.6278 11.0028 60.4148 11.358C60.2017 11.7131 60.0952 12.1226 60.0952 12.5866V19H57.5241ZM69.8342 19.2131C68.7404 19.2131 67.7958 18.9858 67.0004 18.5312C66.2096 18.072 65.6012 17.4233 65.1751 16.5852C64.7489 15.7424 64.5359 14.7505 64.5359 13.6094C64.5359 12.4872 64.7489 11.5024 65.1751 10.6548C65.6059 9.80256 66.2073 9.13968 66.979 8.66619C67.7508 8.18797 68.6576 7.94886 69.6992 7.94886C70.3716 7.94886 71.006 8.05777 71.6026 8.27557C72.204 8.48864 72.7343 8.82008 73.1935 9.26989C73.6576 9.7197 74.0221 10.2926 74.2873 10.9886C74.5524 11.6799 74.685 12.5038 74.685 13.4602V14.2486H65.7433V12.5156H72.2205C72.2158 12.0232 72.1093 11.5852 71.9009 11.2017C71.6926 10.8134 71.4014 10.508 71.0273 10.2855C70.658 10.063 70.2272 9.9517 69.7347 9.9517C69.2092 9.9517 68.7475 10.0795 68.3498 10.3352C67.9521 10.5862 67.6419 10.9176 67.4194 11.3295C67.2016 11.7367 67.0903 12.1842 67.0856 12.6719V14.1847C67.0856 14.8191 67.2016 15.3636 67.4336 15.8182C67.6656 16.268 67.9899 16.6136 68.4066 16.8551C68.8233 17.0919 69.311 17.2102 69.8697 17.2102C70.2437 17.2102 70.5823 17.1581 70.8853 17.054C71.1883 16.9451 71.4511 16.7865 71.6737 16.5781C71.8962 16.3698 72.0643 16.1117 72.1779 15.804L74.5785 16.0739C74.427 16.7083 74.1381 17.2623 73.712 17.7358C73.2906 18.2045 72.7508 18.5691 72.0927 18.8295C71.4345 19.0852 70.6817 19.2131 69.8342 19.2131ZM82.3857 8.09091V10.0795H75.9368V8.09091H82.3857ZM77.549 19V7.06108C77.549 6.32718 77.7005 5.71638 78.0036 5.22869C78.3113 4.741 78.7232 4.37642 79.2393 4.13494C79.7554 3.89347 80.3284 3.77273 80.9581 3.77273C81.4032 3.77273 81.7985 3.80824 82.1442 3.87926C82.4898 3.95028 82.7455 4.0142 82.9112 4.07102L82.3999 6.05966C82.291 6.02651 82.1536 5.99337 81.9879 5.96023C81.8222 5.92235 81.6375 5.90341 81.4339 5.90341C80.9557 5.90341 80.6172 6.01941 80.4183 6.25142C80.2242 6.47869 80.1271 6.8054 80.1271 7.23153V19H77.549ZM87.1673 19.2202C86.476 19.2202 85.8533 19.0971 85.2994 18.8509C84.7501 18.5999 84.3145 18.2306 83.9925 17.7429C83.6753 17.2552 83.5167 16.6539 83.5167 15.9389C83.5167 15.3234 83.6303 14.8144 83.8576 14.4119C84.0849 14.0095 84.395 13.6875 84.788 13.446C85.181 13.2045 85.6237 13.0223 86.1161 12.8991C86.6133 12.7713 87.127 12.679 87.6573 12.6222C88.2965 12.5559 88.815 12.4967 89.2127 12.4446C89.6104 12.3878 89.8993 12.3026 90.0792 12.1889C90.2638 12.0705 90.3562 11.8883 90.3562 11.642V11.5994C90.3562 11.0644 90.1976 10.6501 89.8803 10.3565C89.5631 10.063 89.1062 9.91619 88.5096 9.91619C87.8799 9.91619 87.3803 10.0535 87.011 10.3281C86.6464 10.6027 86.4002 10.9271 86.2724 11.3011L83.8718 10.9602C84.0612 10.2973 84.3737 9.74337 84.8093 9.2983C85.2449 8.84848 85.7776 8.51231 86.4073 8.28977C87.0371 8.0625 87.7331 7.94886 88.4954 7.94886C89.021 7.94886 89.5442 8.01042 90.065 8.13352C90.5858 8.25663 91.0617 8.46023 91.4925 8.74432C91.9234 9.02367 92.2691 9.40483 92.5295 9.88778C92.7946 10.3707 92.9272 10.9744 92.9272 11.6989V19H90.4556V17.5014H90.3704C90.2141 17.8045 89.994 18.0885 89.7099 18.3537C89.4305 18.6141 89.0778 18.8248 88.6516 18.9858C88.2302 19.142 87.7354 19.2202 87.1673 19.2202ZM87.8349 17.331C88.351 17.331 88.7984 17.2292 89.1772 17.0256C89.556 16.8172 89.8472 16.5426 90.0508 16.2017C90.2591 15.8608 90.3633 15.4891 90.3633 15.0866V13.8011C90.2828 13.8674 90.1455 13.929 89.9513 13.9858C89.762 14.0426 89.5489 14.0923 89.3121 14.1349C89.0754 14.1776 88.841 14.2154 88.609 14.2486C88.377 14.2817 88.1758 14.3101 88.0053 14.3338C87.6218 14.3859 87.2785 14.4711 86.9755 14.5895C86.6725 14.7079 86.4334 14.8736 86.2582 15.0866C86.083 15.295 85.9954 15.5649 85.9954 15.8963C85.9954 16.3698 86.1682 16.7273 86.5138 16.9688C86.8595 17.2102 87.2998 17.331 87.8349 17.331ZM104.135 10.9744L101.791 11.2301C101.725 10.9934 101.609 10.7708 101.443 10.5625C101.282 10.3542 101.064 10.1861 100.789 10.0582C100.515 9.9304 100.179 9.86648 99.7809 9.86648C99.2459 9.86648 98.796 9.98248 98.4315 10.2145C98.0716 10.4465 97.8941 10.7472 97.8988 11.1165C97.8941 11.4337 98.0101 11.6918 98.2468 11.8906C98.4883 12.0895 98.886 12.2528 99.44 12.3807L101.301 12.7784C102.333 13.0009 103.1 13.3537 103.602 13.8366C104.109 14.3196 104.364 14.9517 104.369 15.733C104.364 16.4195 104.163 17.0256 103.765 17.5511C103.372 18.072 102.825 18.4792 102.125 18.7727C101.424 19.0663 100.619 19.2131 99.7099 19.2131C98.3746 19.2131 97.2998 18.9337 96.4854 18.375C95.671 17.8116 95.1857 17.0279 95.0295 16.0241L97.5366 15.7827C97.6502 16.2751 97.8917 16.6468 98.261 16.8977C98.6303 17.1487 99.1109 17.2741 99.7028 17.2741C100.314 17.2741 100.804 17.1487 101.173 16.8977C101.547 16.6468 101.734 16.3366 101.734 15.9673C101.734 15.6548 101.613 15.3968 101.372 15.1932C101.135 14.9896 100.766 14.8333 100.264 14.7244L98.4031 14.3338C97.3567 14.116 96.5825 13.7491 96.0806 13.233C95.5787 12.7121 95.3301 12.054 95.3349 11.2585C95.3301 10.5862 95.5124 10.0038 95.8817 9.51136C96.2558 9.0142 96.7743 8.63068 97.4371 8.3608C98.1048 8.08617 98.8742 7.94886 99.7454 7.94886C101.024 7.94886 102.03 8.22112 102.764 8.76562C103.502 9.31013 103.959 10.0464 104.135 10.9744Z" fill="#0D062D"/>
</svg>
