<svg width="150" height="35" viewBox="0 0 150 35" fill="none" xmlns="http://www.w3.org/2000/svg">
<g clip-path="url(#clip0_1_3)">
<g clip-path="url(#clip1_1_3)">
<path opacity="0.6" d="M19.8313 23.1534C19.8313 25.6572 18.742 27.9205 17.0021 29.4624C15.5026 30.8204 13.5222 31.6409 11.3438 31.6409C6.66148 31.6409 2.85625 27.8356 2.85625 23.1534C2.85625 19.2491 5.51567 15.939 9.10871 14.9629C10.0848 17.4243 12.1784 19.3198 14.767 20.0271C15.4743 20.2252 16.2241 20.3242 17.0021 20.3242C17.7801 20.3242 18.5298 20.2252 19.2371 20.0271C19.6191 20.989 19.8313 22.05 19.8313 23.1534Z" fill="#5030E5"/>
<path d="M25.4896 11.8367C25.4896 12.9401 25.2774 14.001 24.8955 14.9629C23.9194 17.4243 21.8258 19.3198 19.2371 20.0271C18.5298 20.2252 17.7801 20.3242 17.0021 20.3242C16.2241 20.3242 15.4743 20.2252 14.767 20.0271C12.1784 19.3198 10.0848 17.4243 9.10871 14.9629C8.72677 14.001 8.51459 12.9401 8.51459 11.8367C8.51459 7.15441 12.3198 3.34918 17.0021 3.34918C21.6844 3.34918 25.4896 7.15441 25.4896 11.8367Z" fill="#5030E5"/>
<path opacity="0.4" d="M31.1479 23.1534C31.1479 27.8356 27.3427 31.6409 22.6604 31.6409C20.482 31.6409 18.5015 30.8204 17.0021 29.4624C18.742 27.9205 19.8312 25.6572 19.8312 23.1534C19.8312 22.05 19.6191 20.989 19.2371 20.0271C21.8258 19.3198 23.9194 17.4243 24.8955 14.9629C28.4885 15.939 31.1479 19.2491 31.1479 23.1534Z" fill="#5030E5"/>
<path d="M42.2642 24V9.45455H48.0028C49.1061 9.45455 50.0459 9.66525 50.8224 10.0866C51.599 10.5033 52.1908 11.0833 52.598 11.8267C53.0099 12.5653 53.2159 13.4176 53.2159 14.3835C53.2159 15.3494 53.0076 16.2017 52.5909 16.9403C52.1742 17.679 51.5705 18.2543 50.7798 18.6662C49.9938 19.0781 49.0421 19.2841 47.9247 19.2841H44.267V16.8196H47.4276C48.0194 16.8196 48.5071 16.7178 48.8906 16.5142C49.2789 16.3059 49.5677 16.0194 49.7571 15.6548C49.9512 15.2855 50.0483 14.8617 50.0483 14.3835C50.0483 13.9006 49.9512 13.4792 49.7571 13.1193C49.5677 12.7547 49.2789 12.473 48.8906 12.2741C48.5024 12.0705 48.0099 11.9688 47.4134 11.9688H45.3395V24H42.2642ZM55.1566 24V13.0909H58.0898V14.9943H58.2035C58.4023 14.3172 58.7362 13.8059 59.2049 13.4602C59.6737 13.1098 60.2134 12.9347 60.8242 12.9347C60.9757 12.9347 61.1391 12.9441 61.3143 12.9631C61.4895 12.982 61.6433 13.008 61.7759 13.0412V15.7259C61.6339 15.6832 61.4374 15.6454 61.1864 15.6122C60.9355 15.5791 60.7058 15.5625 60.4975 15.5625C60.0524 15.5625 59.6547 15.6596 59.3043 15.8537C58.9587 16.0431 58.6841 16.3082 58.4805 16.6491C58.2816 16.9901 58.1822 17.383 58.1822 17.8281V24H55.1566ZM67.7614 24.2131C66.6581 24.2131 65.7041 23.9787 64.8991 23.5099C64.099 23.0365 63.4811 22.3783 63.0455 21.5355C62.6098 20.688 62.392 19.7055 62.392 18.5881C62.392 17.4612 62.6098 16.4763 63.0455 15.6335C63.4811 14.786 64.099 14.1278 64.8991 13.6591C65.7041 13.1856 66.6581 12.9489 67.7614 12.9489C68.8646 12.9489 69.8163 13.1856 70.6165 13.6591C71.4214 14.1278 72.0417 14.786 72.4773 15.6335C72.9129 16.4763 73.1307 17.4612 73.1307 18.5881C73.1307 19.7055 72.9129 20.688 72.4773 21.5355C72.0417 22.3783 71.4214 23.0365 70.6165 23.5099C69.8163 23.9787 68.8646 24.2131 67.7614 24.2131ZM67.7756 21.8693C68.2775 21.8693 68.6965 21.7273 69.0327 21.4432C69.3688 21.1544 69.6222 20.7614 69.7926 20.2642C69.9678 19.767 70.0554 19.2012 70.0554 18.5668C70.0554 17.9323 69.9678 17.3665 69.7926 16.8693C69.6222 16.3722 69.3688 15.9792 69.0327 15.6903C68.6965 15.4015 68.2775 15.2571 67.7756 15.2571C67.2689 15.2571 66.8428 15.4015 66.4972 15.6903C66.1563 15.9792 65.8982 16.3722 65.723 16.8693C65.5526 17.3665 65.4673 17.9323 65.4673 18.5668C65.4673 19.2012 65.5526 19.767 65.723 20.2642C65.8982 20.7614 66.1563 21.1544 66.4972 21.4432C66.8428 21.7273 67.2689 21.8693 67.7756 21.8693ZM73.8001 11.9901V9.45455H85.7461V11.9901H81.293V24H78.2532V11.9901H73.8001ZM89.283 24.206C88.587 24.206 87.9667 24.0852 87.4222 23.8438C86.8777 23.5975 86.4469 23.2353 86.1296 22.7571C85.8171 22.2741 85.6609 21.6728 85.6609 20.9531C85.6609 20.3471 85.7721 19.8381 85.9947 19.4261C86.2172 19.0142 86.5202 18.6828 86.9038 18.4318C87.2873 18.1809 87.7229 17.9915 88.2106 17.8636C88.703 17.7358 89.2191 17.6458 89.7589 17.5938C90.3933 17.5275 90.9047 17.4659 91.293 17.4091C91.6812 17.3475 91.963 17.2576 92.1381 17.1392C92.3133 17.0208 92.4009 16.8456 92.4009 16.6136V16.571C92.4009 16.1212 92.2589 15.7732 91.9748 15.527C91.6954 15.2808 91.2977 15.1577 90.7816 15.1577C90.2371 15.1577 89.8039 15.2784 89.4819 15.5199C89.1599 15.7566 88.9469 16.0549 88.8427 16.4148L86.0444 16.1875C86.1864 15.5246 86.4658 14.9517 86.8825 14.4688C87.2991 13.9811 87.8365 13.607 88.4947 13.3466C89.1576 13.0814 89.9246 12.9489 90.7958 12.9489C91.4019 12.9489 91.9819 13.0199 92.5359 13.1619C93.0946 13.304 93.5894 13.5241 94.0202 13.8224C94.4558 14.1207 94.7991 14.5043 95.0501 14.973C95.301 15.437 95.4265 15.9934 95.4265 16.642V24H92.5572V22.4872H92.4719C92.2968 22.8281 92.0624 23.1288 91.7688 23.3892C91.4753 23.6449 91.1225 23.8461 90.7106 23.9929C90.2987 24.1349 89.8228 24.206 89.283 24.206ZM90.1495 22.1179C90.5946 22.1179 90.9876 22.0303 91.3285 21.8551C91.6694 21.6752 91.9369 21.4337 92.131 21.1307C92.3252 20.8277 92.4222 20.4844 92.4222 20.1009V18.9432C92.3275 19.0047 92.1973 19.0616 92.0316 19.1136C91.8706 19.161 91.6883 19.206 91.4847 19.2486C91.2811 19.2865 91.0775 19.322 90.8739 19.3551C90.6703 19.3835 90.4857 19.4096 90.32 19.4332C89.9648 19.4853 89.6547 19.5682 89.3896 19.6818C89.1244 19.7955 88.9184 19.9493 88.7717 20.1435C88.6249 20.3329 88.5515 20.5696 88.5515 20.8537C88.5515 21.2656 88.7006 21.5805 88.9989 21.7983C89.302 22.0114 89.6855 22.1179 90.1495 22.1179ZM106.85 16.2017L104.081 16.3722C104.033 16.1354 103.931 15.9223 103.775 15.733C103.619 15.5388 103.413 15.3849 103.157 15.2713C102.906 15.1529 102.606 15.0938 102.255 15.0938C101.787 15.0938 101.391 15.1932 101.069 15.392C100.747 15.5862 100.586 15.8466 100.586 16.1733C100.586 16.4337 100.69 16.6539 100.899 16.8338C101.107 17.0137 101.465 17.1581 101.971 17.267L103.946 17.6648C105.006 17.8826 105.797 18.233 106.318 18.7159C106.839 19.1989 107.099 19.8333 107.099 20.6193C107.099 21.3343 106.888 21.9616 106.467 22.5014C106.05 23.0412 105.477 23.4626 104.748 23.7656C104.024 24.0639 103.188 24.2131 102.241 24.2131C100.797 24.2131 99.6464 23.9124 98.7894 23.3111C97.9371 22.705 97.4376 21.8812 97.2908 20.8395L100.267 20.6832C100.357 21.1236 100.574 21.4598 100.92 21.6918C101.266 21.919 101.708 22.0327 102.248 22.0327C102.779 22.0327 103.205 21.9309 103.527 21.7273C103.853 21.5189 104.019 21.2514 104.024 20.9247C104.019 20.6501 103.903 20.4252 103.676 20.25C103.449 20.0701 103.098 19.9328 102.625 19.8381L100.735 19.4616C99.6701 19.2486 98.877 18.8793 98.3562 18.3537C97.8401 17.8281 97.582 17.1581 97.582 16.3438C97.582 15.643 97.7714 15.0393 98.1502 14.5327C98.5337 14.026 99.0711 13.6354 99.7624 13.3608C100.458 13.0862 101.273 12.9489 102.206 12.9489C103.583 12.9489 104.668 13.2401 105.458 13.8224C106.254 14.4048 106.718 15.1979 106.85 16.2017ZM111.746 20.8608L111.753 17.2315H112.193L115.688 13.0909H119.161L114.466 18.5739H113.749L111.746 20.8608ZM109.004 24V9.45455H112.03V24H109.004ZM115.822 24L112.612 19.2486L114.629 17.1108L119.366 24H115.822Z" fill="#5030E5"/>
</g>
</g>
<defs>
<clipPath id="clip0_1_3">
<rect width="150" height="33.95" fill="white" transform="translate(0 0.52002)"/>
</clipPath>
<clipPath id="clip1_1_3">
<rect width="150" height="33.95" fill="white" transform="translate(0 0.52002)"/>
</clipPath>
</defs>
</svg>
